<mxfile host="app.diagrams.net" modified="2020-10-16T12:19:07.569Z" agent="5.0 (Windows)" etag="pbP-Fy817GySJLK7JCZM" version="13.8.0" type="github">
  <diagram id="kYelR8KXJ-DCxy523q1I" name="Page-1">
    <mxGraphModel dx="2272" dy="763" grid="1" gridSize="10" guides="1" tooltips="1" connect="1" arrows="1" fold="1" page="1" pageScale="1" pageWidth="850" pageHeight="1100" math="0" shadow="0">
      <root>
        <mxCell id="0" />
        <mxCell id="1" parent="0" />
        <mxCell id="VHGlScG6-FkK4HBqt8c_-5" style="edgeStyle=orthogonalEdgeStyle;rounded=0;orthogonalLoop=1;jettySize=auto;html=1;entryX=0.5;entryY=0;entryDx=0;entryDy=0;strokeColor=#FC0000;" edge="1" parent="1" source="VHGlScG6-FkK4HBqt8c_-1" target="VHGlScG6-FkK4HBqt8c_-3">
          <mxGeometry relative="1" as="geometry" />
        </mxCell>
        <mxCell id="VHGlScG6-FkK4HBqt8c_-1" value="" style="ellipse;html=1;shape=startState;fillColor=#000000;strokeColor=#ff0000;" vertex="1" parent="1">
          <mxGeometry x="365" y="120" width="30" height="30" as="geometry" />
        </mxCell>
        <mxCell id="VHGlScG6-FkK4HBqt8c_-8" style="edgeStyle=orthogonalEdgeStyle;rounded=0;orthogonalLoop=1;jettySize=auto;html=1;exitX=0.25;exitY=1;exitDx=0;exitDy=0;strokeColor=#FC0000;" edge="1" parent="1" source="VHGlScG6-FkK4HBqt8c_-3" target="VHGlScG6-FkK4HBqt8c_-9">
          <mxGeometry relative="1" as="geometry">
            <mxPoint x="380" y="400" as="targetPoint" />
          </mxGeometry>
        </mxCell>
        <mxCell id="VHGlScG6-FkK4HBqt8c_-12" style="edgeStyle=orthogonalEdgeStyle;rounded=0;orthogonalLoop=1;jettySize=auto;html=1;exitX=0.75;exitY=1;exitDx=0;exitDy=0;strokeColor=#FC0000;" edge="1" parent="1" source="VHGlScG6-FkK4HBqt8c_-3" target="VHGlScG6-FkK4HBqt8c_-11">
          <mxGeometry relative="1" as="geometry" />
        </mxCell>
        <mxCell id="VHGlScG6-FkK4HBqt8c_-3" value="&lt;div&gt;Funcionando&lt;/div&gt;&lt;div&gt;a la velocidad&lt;/div&gt;&lt;div&gt;en el dial&lt;br&gt;&lt;/div&gt;" style="rounded=1;whiteSpace=wrap;html=1;arcSize=11;fontColor=#000000;fillColor=#ffffc0;strokeColor=#ff0000;" vertex="1" parent="1">
          <mxGeometry x="320" y="240" width="120" height="80" as="geometry" />
        </mxCell>
        <mxCell id="VHGlScG6-FkK4HBqt8c_-6" style="edgeStyle=orthogonalEdgeStyle;rounded=0;orthogonalLoop=1;jettySize=auto;html=1;entryX=1;entryY=0.75;entryDx=0;entryDy=0;exitX=1;exitY=0.25;exitDx=0;exitDy=0;strokeColor=#FC0000;" edge="1" parent="1" source="VHGlScG6-FkK4HBqt8c_-3" target="VHGlScG6-FkK4HBqt8c_-3">
          <mxGeometry relative="1" as="geometry">
            <Array as="points">
              <mxPoint x="520" y="260" />
              <mxPoint x="520" y="300" />
            </Array>
          </mxGeometry>
        </mxCell>
        <mxCell id="VHGlScG6-FkK4HBqt8c_-9" value="" style="ellipse;html=1;shape=endState;fillColor=#000000;strokeColor=#ff0000;" vertex="1" parent="1">
          <mxGeometry x="335" y="410" width="30" height="30" as="geometry" />
        </mxCell>
        <mxCell id="VHGlScG6-FkK4HBqt8c_-10" style="edgeStyle=orthogonalEdgeStyle;rounded=0;orthogonalLoop=1;jettySize=auto;html=1;entryX=0;entryY=0.75;entryDx=0;entryDy=0;exitX=0;exitY=0.25;exitDx=0;exitDy=0;strokeColor=#FC0000;" edge="1" parent="1" source="VHGlScG6-FkK4HBqt8c_-3" target="VHGlScG6-FkK4HBqt8c_-3">
          <mxGeometry relative="1" as="geometry">
            <Array as="points">
              <mxPoint x="240" y="260" />
              <mxPoint x="240" y="300" />
            </Array>
          </mxGeometry>
        </mxCell>
        <mxCell id="VHGlScG6-FkK4HBqt8c_-11" value="" style="ellipse;html=1;shape=endState;fillColor=#000000;strokeColor=#ff0000;" vertex="1" parent="1">
          <mxGeometry x="395" y="410" width="30" height="30" as="geometry" />
        </mxCell>
        <mxCell id="VHGlScG6-FkK4HBqt8c_-13" value="&lt;div&gt;Se rota la perilla /&lt;/div&gt;&lt;div&gt;Arrancar motor&lt;/div&gt;" style="text;html=1;strokeColor=none;fillColor=none;align=left;verticalAlign=middle;whiteSpace=wrap;rounded=0;" vertex="1" parent="1">
          <mxGeometry x="390" y="180" width="230" height="30" as="geometry" />
        </mxCell>
        <mxCell id="VHGlScG6-FkK4HBqt8c_-15" value="&lt;div&gt;Se rota la perilla en sentido horario [velocidad &amp;lt; 3] / Incrementar velocidad&lt;/div&gt;" style="text;html=1;strokeColor=none;fillColor=none;align=left;verticalAlign=middle;whiteSpace=wrap;rounded=0;" vertex="1" parent="1">
          <mxGeometry x="530" y="265" width="290" height="30" as="geometry" />
        </mxCell>
        <mxCell id="VHGlScG6-FkK4HBqt8c_-17" value="&lt;div align=&quot;right&quot;&gt;Se rota la perilla en sentido antihorario [velocidad &amp;gt; 1] / Reducirar velocidad&lt;/div&gt;" style="text;html=1;strokeColor=none;fillColor=none;align=right;verticalAlign=middle;whiteSpace=wrap;rounded=0;" vertex="1" parent="1">
          <mxGeometry x="-100" y="265" width="330" height="30" as="geometry" />
        </mxCell>
        <mxCell id="VHGlScG6-FkK4HBqt8c_-18" value="&lt;div align=&quot;right&quot;&gt;Se rota la perilla en sentido antihorario [velocidad = 1] / Apagar motor&lt;br&gt;&lt;/div&gt;" style="text;html=1;strokeColor=none;fillColor=none;align=right;verticalAlign=middle;whiteSpace=wrap;rounded=0;" vertex="1" parent="1">
          <mxGeometry x="10" y="350" width="330" height="30" as="geometry" />
        </mxCell>
        <mxCell id="VHGlScG6-FkK4HBqt8c_-19" value="&lt;div&gt;Se rota la perilla en sentido horario [velocidad = 3] / Apagar motor&lt;br&gt;&lt;/div&gt;" style="text;html=1;strokeColor=none;fillColor=none;align=left;verticalAlign=middle;whiteSpace=wrap;rounded=0;" vertex="1" parent="1">
          <mxGeometry x="420" y="350" width="290" height="30" as="geometry" />
        </mxCell>
      </root>
    </mxGraphModel>
  </diagram>
</mxfile>
